# xmcd
#
# Track frame offsets: 
#        150
#        20207
#        33431
#        50699
#        63045
#        75613
#        88242
#        101340
#        121620
#        138794
#        149133
#        167185
#        186877
#        204653
#
# Disc length: 2966 seconds
#
# Revision: 0
# Processed by: cddbd v1.5.2PL0 Copyright (c) Steve Scherf et al.
# Submitted via: ExactAudioCopy v1.0b4
#
DISCID=c40b940e
DTITLE=Bella Italia - CD 2
DYEAR=2015
DGENRE=Pop
TTITLE0=Toto Cutugno - Insieme
TTITLE1=Ricchi e Poveri - Mamma Maria
TTITLE2=Rino Gaetano - Gianna
TTITLE3=Miguel Bosé - Ce la fai
TTITLE4=Paolo Conte - Via con me
TTITLE5=Tony Renis - Quando, Quando, Quando
TTITLE6=Teddy Reno - Ragazzina
TTITLE7=Angelo Branduardi - La pulce d'acqua
TTITLE8=Alan Sorrenti - Tu sei l'unica donna per me
TTITLE9=Adriano Celentano - 24.000 Baci
TTITLE10=Bino - Mama Leone (Bella Voce)
TTITLE11=Angelo Branduardi - Si puo fare
TTITLE12=Nino D'Angelo - Celebrita
TTITLE13=Tony Esposito - Papa chico
EXTD=
EXTT0=
EXTT1=
EXTT2=
EXTT3=
EXTT4=
EXTT5=
EXTT6=
EXTT7=
EXTT8=
EXTT9=
EXTT10=
EXTT11=
EXTT12=
EXTT13=
PLAYORDER=
